<svg width="621" height="373" viewBox="0 0 621 373" fill="none" xmlns="http://www.w3.org/2000/svg">
<g opacity="0.5" clip-path="url(#clip0_11_183)">
<path d="M458.336 107.142V50.6475H407.52V232.342H411.568C441.288 232.342 458.336 222.631 458.336 205.705V142.425L590.395 155.991V120.709L458.336 107.142Z" fill="#F08437"/>
<path d="M368.717 137.438H257.782V173.233H368.717V137.438Z" fill="#F08437"/>
<path d="M530.96 38.2168H495.426V88.3601H530.96V38.2168Z" fill="#F08437"/>
<path d="M585.378 38.2168H549.844V88.3601H585.378V38.2168Z" fill="#F08437"/>
<path d="M402.704 334.541H491.193V245.957H402.704V334.541ZM439.492 315.479L440.18 315.413C445.025 314.939 449.324 313.641 453.28 311.443C447.817 306.307 444.281 299.881 442.773 292.333L442.589 291.416H450.042L450.174 292.021C451.436 297.907 454.516 302.969 459.331 307.088C464.493 302.101 468.015 295.131 469.566 286.828H441.021V279.806H454.774V270.208H439.698V263.116H454.774V258.528H462.346V263.116H477.974V270.208H462.346V279.806H476.515V285.854C476.515 294.442 472.305 304.057 465.478 311.185C469.189 313.123 473.177 314.479 477.343 315.215L477.974 315.325V322.878L477.063 322.698C470.421 321.383 464.519 319.189 459.515 316.18C454.043 319.808 447.589 322.005 440.324 322.712L439.487 322.795V315.479H439.492ZM413.86 294.495L414.526 294.412C417.058 294.087 420.305 293.442 423.517 292.631V275.209H413.86V268.116H423.517V258.519H430.882V268.116H439.15V275.209H430.878V290.508C433.528 289.639 435.991 288.666 438.05 287.666L439.145 287.135V294.894L438.699 295.096C436.648 296.035 434.221 296.942 430.878 298.017V315.194C430.878 319.615 427.648 322.703 423.026 322.703H415.595V315.61H421.291C422.434 315.61 423.512 314.663 423.512 313.663V300.044C420.857 300.715 417.974 301.276 414.732 301.759L413.855 301.89V294.495H413.86Z" fill="#1C8CCD"/>
<path d="M212.407 334.541H300.896V245.957H212.407V334.541ZM257.392 318.882L253.413 302.193H260.678L264.731 318.882H257.392ZM252.23 263.594H265.151V258.519H272.793V263.594H285.854V270.546H272.793V279.034H287.729V286.056H250.355V279.034H265.151V270.546H252.23V263.594ZM223.396 285.749C225.674 280.534 226.734 272.524 226.734 260.532V259.769H233.057V260.532C233.057 263.826 232.939 266.936 232.706 269.783H236.391V258.519H243.616V269.783H250.701V277.292H243.616V294.499C246.109 293.587 248.103 292.701 249.558 291.863L250.701 291.201V293.219H275.921V287.31H283.422V293.219H287.729V300.171H283.422V314.566C283.422 320.514 279.08 322.633 275.019 322.633H266.058V315.264H273.77C275.141 315.264 275.926 314.505 275.926 313.176V300.171H250.359V299.561L250.302 299.592C248.664 300.473 246.42 301.39 243.621 302.324V322.633H236.396V304.425C232.895 305.307 228.259 306.281 224.408 306.43L223.615 306.461V298.894L224.338 298.855C227.812 298.657 232.176 297.89 236.4 296.741V277.297H231.926C231.379 281.192 230.577 284.398 229.661 286.38L229.455 286.823H222.936L223.396 285.749Z" fill="#F08437"/>
<path d="M307.556 334.541H396.045V245.957H307.556V334.541ZM318.698 262.971H346.972V258.519H354.543V262.971H382.817V278.476H375.386V270.27H326.063V278.476H318.702V262.971H318.698ZM318.698 314.566L319.145 314.365C325.704 311.386 329.463 303.833 329.463 293.64V292.876H336.754V293.64C336.754 298.421 336.11 302.829 334.839 306.75C338.266 310.61 342.792 312.996 348.637 314.022V287.24H320.639V280.007H380.937V287.24H356.274V296.561H378.992V303.377H356.274V314.505H382.812V321.808H354.815C345.066 321.808 337.35 318.865 331.869 313.057C328.933 317.632 324.845 320.839 319.701 322.597L318.689 322.944V314.566H318.698Z" fill="#F08437"/>
<path d="M497.858 245.957V334.541H586.347V245.957H497.858ZM541.182 315.058C541.182 318.865 538.82 322.707 533.541 322.707H524.786V316.588H531.806C532.77 316.588 533.611 315.742 533.611 314.781V311.092H518.394V322.703H510.963V282.091H541.182V315.058ZM535.872 279.034L534.899 275.34C530 277.248 524.234 277.783 509.78 277.783H509.017V270.761H511.857L515.607 258.519H523.332L519.45 270.726C525.439 270.529 529.746 270.151 533.243 269.015L531.013 260.883H538.439L543.215 279.034H535.872ZM573.136 299.548L552.78 306.088V312.628C552.78 313.777 553.674 314.645 554.865 314.645H565.425C568.356 314.645 570.367 313.584 571.953 312.544L573.136 311.772V319.839L572.725 320.053C570.446 321.233 568.172 321.808 565.775 321.808H553.547C549.025 321.808 545.349 318.159 545.349 313.672V291.14H552.78V299.065L573.136 292.6V299.548ZM573.136 267.283L552.78 273.753V279.52C552.78 280.595 553.652 281.468 554.725 281.468H565.561C568.023 281.468 570.091 280.753 571.888 279.279L573.136 278.253V286.565L572.76 286.788C570.696 287.999 568.496 288.56 565.841 288.56H553.612C548.977 288.56 545.344 284.924 545.344 280.288V258.519H552.775V266.656L573.132 260.256V267.283H573.136Z" fill="#F08437"/>
<path d="M533.611 288.354H518.394V293.57H533.611V288.354Z" fill="#F08437"/>
<path d="M533.611 299.688H518.394V304.768H533.611V299.688Z" fill="#F08437"/>
<path d="M253.418 302.192L257.392 318.882H264.735L260.682 302.192H253.418Z" fill="white"/>
<path d="M229.648 286.38C230.568 284.398 231.366 281.191 231.913 277.296H236.387V296.745C232.163 297.894 227.799 298.662 224.324 298.859L223.602 298.899V306.465L224.395 306.434C228.246 306.285 232.882 305.311 236.382 304.43V322.637H243.607V302.329C246.407 301.394 248.655 300.478 250.289 299.596L250.346 299.565V300.175H275.912V313.18C275.912 314.505 275.128 315.268 273.757 315.268H266.045V322.637H275.005C279.067 322.637 283.409 320.518 283.409 314.571V300.175H287.716V293.223H283.409V287.315H275.908V293.223H250.688V291.205L249.544 291.867C248.09 292.705 246.096 293.591 243.603 294.504V277.296H250.688V269.787H243.603V258.523H236.378V269.787H232.693C232.925 266.941 233.044 263.831 233.044 260.537V259.774H226.721V260.537C226.721 272.529 225.661 280.538 223.382 285.753L222.914 286.823H229.433L229.648 286.38Z" fill="white"/>
<path d="M265.151 279.034H250.355V286.056H287.729V279.034H272.793V270.551H285.854V263.594H272.793V258.52H265.151V263.594H252.23V270.551H265.151V279.034Z" fill="white"/>
<path d="M331.877 313.053C337.359 318.86 345.07 321.804 354.823 321.804H382.821V314.501H356.282V303.373H379V296.557H356.282V287.236H380.946V280.003H320.643V287.236H348.641V314.018C342.792 312.992 338.27 310.606 334.844 306.746C336.114 302.824 336.758 298.416 336.758 293.635V292.872H329.468V293.635C329.468 303.829 325.704 311.382 319.149 314.36L318.702 314.562V322.94L319.714 322.593C324.854 320.834 328.942 317.628 331.877 313.053Z" fill="white"/>
<path d="M326.063 270.27H375.386V278.477H382.817V262.972H354.543V258.52H346.976V262.972H318.698V278.477H326.063V270.27Z" fill="white"/>
<path d="M423.512 300.048V313.667C423.512 314.667 422.434 315.614 421.291 315.614H415.595V322.707H423.026C427.648 322.707 430.878 319.619 430.878 315.198V298.021C434.221 296.942 436.648 296.039 438.699 295.1L439.145 294.898V287.139L438.05 287.67C435.995 288.67 433.533 289.644 430.878 290.512V275.213H439.145V268.12H430.878V258.523H423.512V268.12H413.855V275.213H423.512V292.635C420.301 293.447 417.054 294.091 414.521 294.416L413.855 294.499V301.903L414.732 301.772C417.974 301.285 420.857 300.719 423.512 300.048Z" fill="white"/>
<path d="M459.52 316.172C464.523 319.185 470.425 321.374 477.067 322.69L477.979 322.87V315.317L477.348 315.207C473.177 314.47 469.19 313.115 465.483 311.176C472.314 304.049 476.52 294.434 476.52 285.846V279.797H462.35V270.2H477.979V263.108H462.35V258.52H454.779V263.108H439.702V270.2H454.779V279.797H441.025V286.819H469.571C468.02 295.123 464.497 302.097 459.335 307.079C454.52 302.965 451.44 297.899 450.178 292.013L450.047 291.407H442.594L442.778 292.324C444.285 299.873 447.821 306.299 453.285 311.435C449.328 313.632 445.034 314.931 440.184 315.404L439.496 315.47V322.778L440.333 322.694C447.593 321.997 454.047 319.799 459.52 316.172Z" fill="white"/>
<path d="M552.784 258.52H545.353V280.288C545.353 284.929 548.986 288.561 553.621 288.561H565.85C568.505 288.561 570.705 287.995 572.768 286.789L573.145 286.565V278.253L571.896 279.28C570.104 280.753 568.036 281.468 565.57 281.468H554.734C553.661 281.468 552.789 280.595 552.789 279.521V273.753L573.145 267.283V260.256L552.789 266.656V258.52H552.784Z" fill="white"/>
<path d="M552.784 291.135H545.353V313.667C545.353 318.154 549.029 321.803 553.551 321.803H565.78C568.177 321.803 570.451 321.229 572.729 320.049L573.141 319.834V311.768L571.958 312.54C570.372 313.579 568.356 314.641 565.429 314.641H554.87C553.683 314.641 552.784 313.772 552.784 312.623V306.083L573.141 299.543V292.591L552.784 299.056V291.135Z" fill="white"/>
<path d="M510.963 322.707H518.394V311.097H533.611V314.786C533.611 315.746 532.765 316.593 531.806 316.593H524.786V322.712H533.541C538.82 322.712 541.182 318.869 541.182 315.062V282.1H510.963V322.707ZM518.394 288.354H533.611V293.57H518.394V288.354ZM518.394 299.688H533.611V304.768H518.394V299.688Z" fill="white"/>
<path d="M531.012 260.884L533.243 269.016C529.751 270.152 525.439 270.529 519.45 270.726L523.332 258.52H515.607L511.857 270.761H509.017V277.784H509.78C524.234 277.784 529.996 277.249 534.899 275.341L535.872 279.034H543.215L538.439 260.884H531.012Z" fill="white"/>
<path d="M241.211 48.4941H30.6574V96.9137H169.525C178.941 96.9137 182.521 100.962 183.397 109.401C177.407 204.245 130.438 265.13 56.6529 273.964C45.7167 275.271 37.5846 284.74 37.5846 295.767V331.849C95.8455 331.849 147.885 308.466 184.107 266.007C221.165 222.566 240.755 161.137 240.755 88.3649L241.211 48.4941Z" fill="#F08437"/>
</g>
<defs>
<clipPath id="clip0_11_183">
<rect width="621" height="373" fill="white"/>
</clipPath>
</defs>
</svg>
