<svg width="182" height="110" viewBox="0 0 182 110" fill="none" xmlns="http://www.w3.org/2000/svg">
<g clip-path="url(#clip0_19_192)">
<path d="M134.327 31.5969V14.9363H119.434V68.5193H120.621C129.331 68.5193 134.327 65.6554 134.327 60.6637V42.002L173.03 46.0029V35.5978L134.327 31.5969Z" fill="#F08437"/>
<path d="M108.062 40.5313H75.5496V51.0877H108.062V40.5313Z" fill="#F08437"/>
<path d="M155.611 11.2705H145.197V26.058H155.611V11.2705Z" fill="#F08437"/>
<path d="M171.56 11.2705H161.146V26.058H171.56V11.2705Z" fill="#F08437"/>
<path d="M118.023 98.6584H143.957V72.5344H118.023V98.6584ZM128.804 93.0367L129.006 93.0173C130.426 92.8776 131.686 92.4947 132.845 91.8467C131.244 90.332 130.208 88.4369 129.766 86.2108L129.712 85.9405H131.897L131.935 86.119C132.305 87.8549 133.208 89.3476 134.619 90.5622C136.132 89.0915 137.164 87.0361 137.619 84.5874H129.253V82.5165H133.283V79.6863H128.865V77.5946H133.283V76.2416H135.502V77.5946H140.083V79.6863H135.502V82.5165H139.655V84.3003C139.655 86.833 138.421 89.6684 136.42 91.7704C137.508 92.3421 138.677 92.7418 139.898 92.9591L140.083 92.9915V95.2189L139.816 95.1659C137.869 94.7778 136.139 94.131 134.673 93.2437C133.069 94.3134 131.177 94.9615 129.048 95.1697L128.803 95.1943V93.0367H128.804ZM121.292 86.8485L121.487 86.8239C122.23 86.7282 123.181 86.5381 124.122 86.2988V81.1609H121.292V79.0693H124.122V76.239H126.281V79.0693H128.704V81.1609H126.28V85.6727C127.057 85.4166 127.778 85.1294 128.382 84.8345L128.703 84.678V86.9662L128.572 87.0257C127.971 87.3025 127.26 87.5703 126.28 87.8872V92.9526C126.28 94.2565 125.333 95.1672 123.979 95.1672H121.801V93.0755H123.47C123.805 93.0755 124.121 92.7961 124.121 92.5012V88.4848C123.343 88.6827 122.498 88.8483 121.548 88.9906L121.291 89.0294V86.8485H121.292Z" fill="#1C8CCD"/>
<path d="M62.2512 98.6584H88.1852V72.5344H62.2512V98.6584ZM75.4352 94.0405L74.2692 89.1186H76.3983L77.5861 94.0405H75.4352ZM73.9225 77.7356H77.7094V76.239H79.9489V77.7356H83.7768V79.7859H79.9489V82.2888H84.3264V84.3598H73.3729V82.2888H77.7094V79.7859H73.9225V77.7356ZM65.4718 84.2692C66.1395 82.7312 66.4503 80.3692 66.4503 76.8327V76.6077H68.3032V76.8327C68.3032 77.8042 68.2686 78.7213 68.2005 79.5608H69.2805V76.239H71.398V79.5608H73.4744V81.7753H71.398V86.8498C72.1286 86.5807 72.7129 86.3195 73.1392 86.0724L73.4744 85.8771V86.4721H80.8657V84.7297H83.0641V86.4721H84.3264V88.5223H83.0641V92.7677C83.0641 94.5217 81.7916 95.1465 80.6012 95.1465H77.9752V92.9733H80.2352C80.6372 92.9733 80.867 92.7496 80.867 92.3576V88.5223H73.3742V88.3425L73.3575 88.3516C72.8773 88.6116 72.2198 88.8819 71.3992 89.1574V95.1465H69.2817V89.777C68.2557 90.037 66.8971 90.3242 65.7684 90.3682L65.536 90.3772V88.1459L65.7479 88.1343C66.7662 88.0761 68.0451 87.8497 69.283 87.5108V81.7766H67.9719C67.8114 82.9253 67.5764 83.8708 67.3081 84.4555L67.2477 84.5861H65.3369L65.4718 84.2692Z" fill="#F08437"/>
<path d="M90.137 98.6584H116.071V72.5344H90.137V98.6584ZM93.4025 77.5519H101.689V76.239H103.908V77.5519H112.194V82.1246H110.016V79.7044H95.5611V82.1246H93.4037V77.5519H93.4025ZM93.4025 92.7677L93.5334 92.7082C95.4558 91.8299 96.5575 89.6024 96.5575 86.5963V86.3712H98.6943V86.5963C98.6943 88.0062 98.5055 89.3062 98.1331 90.4626C99.1373 91.6009 100.464 92.3046 102.177 92.6073V84.709H93.9713V82.576H111.643V84.709H104.415V87.4578H111.073V89.4679H104.415V92.7496H112.193V94.9033H103.987C101.13 94.9033 98.8689 94.0353 97.2625 92.3227C96.4022 93.6718 95.2041 94.6174 93.6965 95.1361L93.3999 95.2383V92.7677H93.4025Z" fill="#F08437"/>
<path d="M145.91 72.5344V98.6584H171.844V72.5344H145.91ZM158.607 92.9125C158.607 94.0353 157.915 95.1684 156.368 95.1684H153.802V93.364H155.859C156.142 93.364 156.388 93.1143 156.388 92.831V91.7432H151.929V95.1672H149.751V83.1904H158.607V92.9125ZM157.051 82.2888L156.766 81.1997C155.33 81.7624 153.64 81.9202 149.404 81.9202H149.181V79.8492H150.013L151.112 76.239H153.376L152.238 79.8389C153.993 79.7807 155.256 79.6694 156.28 79.3344L155.627 76.9362H157.803L159.203 82.2888H157.051ZM167.972 88.3386L162.006 90.2673V92.1959C162.006 92.5348 162.268 92.791 162.618 92.791H165.712C166.571 92.791 167.161 92.4779 167.626 92.1714L167.972 91.9437V94.3225L167.852 94.3859C167.184 94.7338 166.517 94.9033 165.815 94.9033H162.231C160.906 94.9033 159.828 93.8271 159.828 92.5038V85.859H162.006V88.1964L167.972 86.2897V88.3386ZM167.972 78.8235L162.006 80.7314V82.4324C162.006 82.7493 162.262 83.0067 162.576 83.0067H165.752C166.474 83.0067 167.08 82.7959 167.606 82.3613L167.972 82.0586V84.5098L167.862 84.5758C167.257 84.9328 166.612 85.0984 165.834 85.0984H162.25C160.892 85.0984 159.827 84.026 159.827 82.6588V76.239H162.005V78.6385L167.971 76.7513V78.8235H167.972Z" fill="#F08437"/>
<path d="M156.388 85.0376H151.929V86.5756H156.388V85.0376Z" fill="#F08437"/>
<path d="M156.388 88.38H151.929V89.8779H156.388V88.38Z" fill="#F08437"/>
<path d="M74.2705 89.1186L75.4352 94.0405H77.5874L76.3996 89.1186H74.2705Z" fill="white"/>
<path d="M67.3042 84.4555C67.5739 83.8708 67.8076 82.9252 67.9681 81.7766H69.2792V87.5121C68.0413 87.851 66.7624 88.0773 65.7441 88.1356L65.5322 88.1472V90.3785L65.7646 90.3695C66.8933 90.3255 68.2519 90.0383 69.2779 89.7783V95.1478H71.3954V89.1587C72.216 88.8832 72.8747 88.6129 73.3537 88.3529L73.3704 88.3438V88.5236H80.8632V92.3589C80.8632 92.7496 80.6333 92.9746 80.2314 92.9746H77.9714V95.1478H80.5974C81.7878 95.1478 83.0603 94.523 83.0603 92.769V88.5236H84.3226V86.4734H83.0603V84.731H80.8619V86.4734H73.4706V85.8784L73.1354 86.0737C72.7091 86.3207 72.1248 86.582 71.3941 86.8511V81.7766H73.4706V79.5621H71.3941V76.2403H69.2766V79.5621H68.1967C68.2648 78.7226 68.2994 77.8055 68.2994 76.834V76.609H66.4465V76.834C66.4465 80.3705 66.1357 82.7325 65.468 84.2705L65.3306 84.5861H67.2413L67.3042 84.4555Z" fill="white"/>
<path d="M77.7095 82.2888H73.373V84.3598H84.3265V82.2888H79.949V79.7872H83.7769V77.7356H79.949V76.239H77.7095V77.7356H73.9226V79.7872H77.7095V82.2888Z" fill="white"/>
<path d="M97.2651 92.3214C98.8716 94.034 101.132 94.902 103.99 94.902H112.196V92.7483H104.418V89.4666H111.076V87.4565H104.418V84.7077H111.646V82.5747H93.9727V84.7077H102.178V92.606C100.464 92.3033 99.1387 91.5996 98.1345 90.4613C98.5069 89.3049 98.6956 88.0049 98.6956 86.595V86.3699H96.5589V86.595C96.5589 89.6011 95.4558 91.8286 93.5348 92.7069L93.4038 92.7664V95.237L93.7004 95.1348C95.2067 94.6161 96.4048 93.6705 97.2651 92.3214Z" fill="white"/>
<path d="M95.5612 79.7044H110.016V82.1246H112.194V77.5519H103.908V76.239H101.69V77.5519H93.4026V82.1246H95.5612V79.7044Z" fill="white"/>
<path d="M124.121 88.4861V92.5025C124.121 92.7974 123.805 93.0768 123.47 93.0768H121.801V95.1684H123.979C125.333 95.1684 126.28 94.2578 126.28 92.9539V87.8885C127.26 87.5703 127.971 87.3038 128.572 87.027L128.703 86.9675V84.6793L128.382 84.8358C127.78 85.1307 127.058 85.4179 126.28 85.674V81.1622H128.703V79.0705H126.28V76.2403H124.121V79.0705H121.291V81.1622H124.121V86.3C123.18 86.5393 122.228 86.7295 121.486 86.8252L121.291 86.8498V89.0333L121.548 88.9945C122.498 88.8509 123.343 88.684 124.121 88.4861Z" fill="white"/>
<path d="M134.674 93.2411C136.141 94.1298 137.87 94.7752 139.817 95.1633L140.084 95.2163V92.9889L139.899 92.9565C138.677 92.7392 137.508 92.3395 136.422 91.7678C138.424 89.6658 139.656 86.8304 139.656 84.2977V82.5139H135.504V79.6837H140.084V77.592H135.504V76.239H133.285V77.592H128.866V79.6837H133.285V82.5139H129.254V84.5848H137.62C137.165 87.0335 136.133 89.0902 134.62 90.5596C133.209 89.3463 132.306 87.8523 131.936 86.1164L131.898 85.9379H129.714L129.767 86.2082C130.209 88.4344 131.245 90.3294 132.847 91.8441C131.687 92.4922 130.429 92.875 129.007 93.0147L128.806 93.0341V95.1891L129.051 95.1646C131.179 94.9589 133.07 94.3108 134.674 93.2411Z" fill="white"/>
<path d="M162.008 76.239H159.83V82.6588C159.83 84.0273 160.894 85.0984 162.253 85.0984H165.837C166.615 85.0984 167.26 84.9315 167.865 84.5758L167.975 84.5098V82.0586L167.609 82.3613C167.084 82.7959 166.478 83.0067 165.755 83.0067H162.579C162.265 83.0067 162.009 82.7493 162.009 82.4324V80.7314L167.975 78.8235V76.7513L162.009 78.6385V76.239H162.008Z" fill="white"/>
<path d="M162.008 85.8577H159.83V92.5025C159.83 93.8258 160.907 94.902 162.232 94.902H165.816C166.519 94.902 167.185 94.7325 167.853 94.3846L167.974 94.3212V91.9424L167.627 92.1701C167.162 92.4766 166.571 92.7897 165.714 92.7897H162.619C162.271 92.7897 162.008 92.5335 162.008 92.1946V90.266L167.974 88.3373V86.2871L162.008 88.1938V85.8577Z" fill="white"/>
<path d="M149.751 95.1684H151.929V91.7445H156.388V92.8323C156.388 93.1156 156.14 93.3653 155.859 93.3653H153.802V95.1697H156.368C157.915 95.1697 158.607 94.0366 158.607 92.9138V83.193H149.751V95.1684ZM151.929 85.0376H156.388V86.5756H151.929V85.0376ZM151.929 88.38H156.388V89.8779H151.929V88.38Z" fill="white"/>
<path d="M155.627 76.9362L156.281 79.3344C155.257 79.6694 153.994 79.7807 152.238 79.8389L153.376 76.239H151.112L150.013 79.8492H149.181V81.9202H149.404C153.64 81.9202 155.329 81.7624 156.766 81.1997L157.051 82.2888H159.203L157.803 76.9362H155.627Z" fill="white"/>
<path d="M70.6929 14.3012H8.98486V28.5804H49.6836C52.4431 28.5804 53.4922 29.7743 53.7491 32.2631C51.9937 60.233 38.228 78.1884 16.6035 80.7935C13.3984 81.179 11.015 83.9717 11.015 87.2236V97.8642C28.0899 97.8642 43.3413 90.9684 53.9571 78.4471C64.8181 65.636 70.5594 47.5202 70.5594 26.0593L70.6929 14.3012Z" fill="#F08437"/>
</g>
<defs>
<clipPath id="clip0_19_192">
<rect width="182" height="110" fill="white"/>
</clipPath>
</defs>
</svg>
