<svg width="230" height="46" viewBox="0 0 230 46" fill="none" xmlns="http://www.w3.org/2000/svg">
<g clip-path="url(#clip0_19_157)">
<path d="M11.8703 23.1742C10.6705 20.7241 9.77428 18.169 9.38738 15.4478C9.05745 13.1273 9.0913 10.8202 9.91977 8.59889C11.1345 5.34188 13.501 3.46979 16.7961 2.78882C19.3893 2.25292 21.941 2.5811 24.4541 3.30396C28.4079 4.44116 31.9138 6.47065 35.1553 9.01346C35.5219 9.30104 35.883 9.59602 36.2756 9.91063C37.3198 10.8939 38.335 11.854 39.3502 12.8142C39.4968 12.9528 39.6433 13.0915 39.7924 13.2514C39.8279 13.3233 39.8558 13.3783 39.8945 13.4236C40.6067 14.258 41.3228 15.089 42.0324 15.9258C42.3324 16.2796 42.6194 16.6452 42.9123 17.0055C42.9716 17.1109 43.0219 17.223 43.0914 17.3208C45.2478 20.3518 46.984 23.6029 48.0287 27.2148C48.6206 29.2612 48.9502 31.347 48.8467 33.487C48.7439 35.6147 48.219 37.6118 46.9635 39.3498C45.5294 41.3352 43.5638 42.4466 41.2254 42.9059C38.5123 43.4389 35.8559 43.0759 33.2517 42.2629C32.0554 41.8893 30.9024 41.3704 29.717 40.8786C29.9389 40.4162 30.1735 39.9927 30.4318 39.572C31.2405 39.8564 32.0145 40.1781 32.813 40.4117C34.7231 40.9706 36.6655 41.2621 38.6459 40.8675C41.3243 40.3338 43.1042 38.7595 43.8391 36.035C44.3359 34.193 44.1952 32.3452 43.8026 30.5065C43.2476 27.9076 42.1816 25.5238 40.8544 23.2535C40.6188 22.8505 40.3511 22.4672 40.0946 22.0532C39.6712 21.4187 39.2741 20.7877 38.8262 20.1972C38.2122 19.3875 37.5688 18.6004 36.919 17.8203C36.6565 17.5053 36.3438 17.2342 36.0507 16.9218C35.9924 16.8287 35.9451 16.7484 35.8808 16.6866C34.9883 15.8287 34.1108 14.9533 33.193 14.1247C32.5942 13.5842 31.936 13.1126 31.296 12.5899C28.584 10.5039 25.6687 8.85633 22.4011 7.93188C20.544 7.40651 18.6549 7.16132 16.7349 7.54098C14.5782 7.96744 12.9305 9.11578 11.9855 11.1869C11.1968 12.9154 11.1447 14.7466 11.3837 16.601C11.6503 18.6699 12.3145 20.6151 13.1567 22.5173C13.0406 22.5944 12.9384 22.6584 12.8309 22.7112C12.5118 22.8679 12.1906 23.0202 11.8703 23.1742Z" fill="#0175C2"/>
<path d="M11.8611 23.196C12.1907 23.0202 12.5118 22.8679 12.8309 22.7112C12.9384 22.6584 13.0407 22.5944 13.1777 22.5154C13.2466 22.4785 13.2843 22.4638 13.3196 22.4445C17.5958 20.1035 21.8713 17.7612 26.148 15.4213C27.8654 14.4817 29.5856 13.5471 31.3045 12.6102C31.9361 13.1126 32.5943 13.5842 33.193 14.1247C34.1108 14.9533 34.9883 15.8287 35.8808 16.6866C35.9451 16.7484 35.9924 16.8287 36.0379 16.9378C35.7963 17.2029 35.563 17.4293 35.3325 17.6587C33.8621 19.1223 32.3914 20.5856 30.9224 22.0507C29.2949 23.6739 27.6695 25.2993 26.0425 26.9229C24.9123 28.0509 23.7808 29.1776 22.6213 30.3032C22.0616 30.2778 21.5297 30.2638 20.9993 30.2284C19.8806 30.1538 18.7628 30.0644 17.6442 29.9878C16.9344 29.9392 16.2234 29.9098 15.5138 29.8593C14.176 29.7641 12.839 29.6576 11.5013 29.5603C10.6026 29.4949 9.70332 29.4371 8.80427 29.3763C7.57543 29.2932 6.34681 29.2064 5.11764 29.1287C4.01758 29.0593 2.91686 29.0009 1.81665 28.934C1.75267 28.9301 1.69063 28.8927 1.62769 28.8709C2.52498 28.3699 3.41927 27.863 4.32016 27.3688C6.72765 26.0481 9.13814 24.7331 11.5466 23.4143C11.6524 23.3564 11.7503 23.2836 11.8611 23.196Z" fill="#53C3F1"/>
<path d="M22.6499 30.3049C23.7808 29.1776 24.9123 28.0509 26.0426 26.9229C27.6696 25.2993 29.295 23.6739 30.9224 22.0507C32.3914 20.5856 33.8621 19.1223 35.3326 17.6587C35.5631 17.4293 35.7963 17.2029 36.0411 16.9591C36.3438 17.2342 36.6566 17.5053 36.919 17.8203C37.5689 18.6004 38.2122 19.3875 38.8263 20.1972C39.2742 20.7877 39.6712 21.4187 40.0866 22.0732C37.1309 27.4201 34.1788 32.725 31.2294 38.0314C30.9472 38.5391 30.6815 39.0564 30.4082 39.5692C30.1736 39.9927 29.9389 40.4162 29.7019 40.8595C29.6382 40.9569 29.5654 41.0277 29.5176 41.1132C28.8862 42.2423 28.2584 43.3734 27.5956 44.5022C27.5397 44.4541 27.5131 44.4096 27.4964 44.3615C26.803 42.3584 26.1117 40.3545 25.4175 38.3516C24.9042 36.8708 24.3836 35.3927 23.8732 33.9108C23.46 32.7108 23.0573 31.507 22.6499 30.3049Z" fill="#004098"/>
<path d="M22.6213 30.3032C23.0572 31.507 23.46 32.7108 23.8732 33.9108C24.3835 35.3927 24.9042 36.8708 25.4175 38.3516C26.1117 40.3545 26.803 42.3584 27.4963 44.3615C27.513 44.4096 27.5396 44.4541 27.5785 44.5153C27.5046 44.507 27.4023 44.504 27.3248 44.4575C24.3937 42.7015 21.4648 40.9416 18.5358 39.1819C12.9032 35.7978 7.27073 32.4135 1.63923 29.0275C1.59038 28.9981 1.41478 28.9952 1.60612 28.8731C1.69064 28.8927 1.75268 28.9301 1.81666 28.934C2.91687 29.0009 4.01759 29.0593 5.11765 29.1287C6.34682 29.2064 7.57544 29.2932 8.80428 29.3763C9.70333 29.4371 10.6026 29.4949 11.5013 29.5603C12.839 29.6576 14.176 29.7642 15.5138 29.8593C16.2234 29.9098 16.9344 29.9392 17.6442 29.9878C18.7628 30.0644 19.8806 30.1538 20.9993 30.2284C21.5298 30.2638 22.0616 30.2778 22.6213 30.3032Z" fill="#018CD7"/>
<path d="M78.2541 31.9125C78.1852 31.8877 78.1181 31.8679 78.0984 31.8252C77.717 30.9986 77.1961 30.272 76.5305 29.5532C79.6038 28.7884 81.2647 26.882 81.1954 23.5608C79.8565 23.5608 78.4859 23.5608 77.0953 23.5608C77.0953 22.6926 77.0953 21.864 77.0953 21.0134C79.3317 21.0134 81.553 21.0134 83.8087 21.0134C83.8087 18.8145 83.8087 16.637 83.8087 14.4375C84.7219 14.4375 85.6009 14.4375 86.514 14.4375C86.514 16.6198 86.514 18.7979 86.514 21.0083C88.8367 21.0083 91.1258 21.0083 93.4311 21.0083C93.4311 21.8609 93.4311 22.681 93.4311 23.5326C91.9071 23.5326 90.3933 23.5326 88.8337 23.5326C88.8337 23.672 88.8337 23.7804 88.8337 23.8888C88.8337 25.3829 88.8331 26.8769 88.8338 28.371C88.8342 29.3073 88.8436 29.316 89.7557 29.316C90.0274 29.3159 90.2991 29.3166 90.5708 29.3157C90.9502 29.3144 91.1211 29.2085 91.1737 28.8193C91.2618 28.1682 91.3008 27.51 91.3591 26.8547C91.368 26.7546 91.369 26.6537 91.3721 26.5887C92.1562 26.9425 92.9382 27.2954 93.8122 27.6898C93.6609 28.4864 93.5349 29.3603 93.3227 30.2116C93.0876 31.1547 92.4526 31.744 91.4974 31.7864C90.3352 31.8381 89.1619 31.8504 88.0053 31.7443C86.9576 31.6482 86.4838 31.0881 86.2997 30.0085C86.2256 29.5744 86.1854 29.1291 86.1816 28.6885C86.1679 27.0915 86.1762 25.4943 86.1762 23.8972C86.1762 23.7953 86.1762 23.6935 86.1762 23.5693C85.4711 23.5693 84.7827 23.5693 84.078 23.5693C83.9926 24.2211 83.9123 24.8813 83.8188 25.5396C83.4155 28.3783 81.896 30.3377 79.3411 31.4742C78.9915 31.6297 78.6326 31.7632 78.2541 31.9125Z" fill="#028DD7"/>
<path d="M64.2234 31.3093C63.7982 30.9487 63.3889 30.6026 63.0049 30.2778C63.4306 29.8614 63.8918 29.46 64.2957 29.0054C65.2898 27.8865 65.7816 26.5192 65.9871 25.0511C66.1264 24.0564 66.2129 23.047 66.2294 22.0425C66.265 19.8696 66.2403 17.6958 66.2403 15.5223C66.2403 15.4099 66.2403 15.2976 66.2403 15.1615C69.0338 15.1615 71.8137 15.1615 74.6337 15.1615C74.6337 15.2628 74.6337 15.372 74.6337 15.4812C74.6337 20.0341 74.6349 24.587 74.6307 29.1399C74.6305 29.4268 74.6062 29.7167 74.5615 30C74.432 30.8195 73.9738 31.3583 73.1944 31.5964C72.2398 31.8881 71.2582 31.9094 70.3248 31.9078C70.0217 31.0345 69.7314 30.1979 69.441 29.3613C69.7865 29.3613 70.1724 29.3605 70.5583 29.3616C70.9103 29.3626 71.2623 29.3687 71.6143 29.3667C71.8484 29.3654 72.0171 29.2463 72.0201 29.0029C72.0316 28.0684 72.0247 27.1336 72.0247 26.1633C71.6495 26.1633 71.3005 26.1633 70.9515 26.1633C70.2071 26.1632 69.4625 26.1714 68.7183 26.1583C68.4922 26.1544 68.3956 26.2069 68.3381 26.4566C67.9187 28.2804 67.1799 29.939 65.8509 31.2708C65.572 31.5502 65.262 31.7971 64.9764 32.0501C64.7149 31.7925 64.4771 31.5581 64.2234 31.3093ZM70.3766 23.7517C70.9165 23.7517 71.4563 23.7517 72.0116 23.7517C72.0116 23.1186 72.0116 22.5177 72.0116 21.9081C70.9393 21.9081 69.8822 21.9081 68.7877 21.9081C68.7877 22.529 68.7877 23.1291 68.7877 23.7517C69.2944 23.7517 69.8053 23.7517 70.3766 23.7517ZM72.0278 19.187C72.0278 18.6765 72.0278 18.1659 72.0278 17.6469C70.9381 17.6469 69.8884 17.6469 68.823 17.6469C68.823 18.2637 68.823 18.864 68.823 19.4855C69.8469 19.4855 70.8506 19.4822 71.8542 19.4883C72.0448 19.4895 72.0316 19.3728 72.0278 19.187Z" fill="#018CD7"/>
<path d="M105.188 18.2489C106.404 18.2489 107.589 18.2489 108.798 18.2489C108.798 19.2172 108.798 20.1668 108.798 21.1449C107.199 21.1449 105.604 21.1449 103.998 21.1449C104.054 21.9815 104.108 22.7892 104.163 23.6248C105.717 23.6248 107.25 23.6248 108.802 23.6248C108.802 24.618 108.802 25.5822 108.802 26.5849C107.351 26.5849 105.89 26.5849 104.384 26.5849C104.494 28.2203 104.601 29.8149 104.71 31.4266C103.71 31.4266 102.738 31.4266 101.748 31.4266C101.639 29.8243 101.529 28.2351 101.418 26.6168C99.807 26.6168 98.2024 26.6168 96.5754 26.6168C96.5754 25.6151 96.5754 24.6426 96.5754 23.6402C98.102 23.6402 99.6357 23.6402 101.213 23.6402C101.159 22.7947 101.106 21.9816 101.053 21.1524C99.5483 21.1524 98.0719 21.1524 96.5742 21.1524C96.5742 20.1843 96.5742 19.2337 96.5742 18.2517C97.9896 18.2517 99.4022 18.2517 100.846 18.2517C100.793 17.3929 100.741 16.5667 100.689 15.7219C101.669 15.7219 102.63 15.7219 103.628 15.7219C103.689 16.5433 103.751 17.3695 103.816 18.2489C104.263 18.2489 104.71 18.2489 105.188 18.2489Z" fill="#4C4B49"/>
<path d="M225.071 29.9638C223.758 28.8136 222.604 27.5412 221.553 26.1085C219.721 28.3759 217.585 30.2205 214.919 31.4356C214.912 31.3445 214.905 31.2889 214.905 31.2333C214.904 30.2544 214.898 29.2755 214.912 28.2968C214.914 28.1834 214.998 28.0191 215.092 27.9668C217.889 26.3968 219.914 24.0699 221.406 21.2233C221.681 20.6991 221.896 20.1424 222.138 19.6C222.149 19.5739 222.146 19.5408 222.153 19.4817C219.968 19.4817 217.792 19.4817 215.592 19.4817C215.592 18.4613 215.592 17.469 215.592 16.4492C218.82 16.4492 222.055 16.4492 225.327 16.4492C225.327 16.0087 225.327 15.5934 225.327 15.1641C225.77 15.1641 226.176 15.1641 226.596 15.1641C226.596 16.0624 226.596 16.9443 226.596 17.8578C226.336 17.8578 226.08 17.8578 225.87 17.8578C225.525 18.814 225.249 19.7516 224.854 20.6336C224.399 21.6494 223.846 22.6198 223.319 23.6004C223.225 23.7757 223.231 23.8737 223.349 24.0271C224.356 25.3292 225.395 26.5974 226.681 27.629C226.768 27.6986 226.842 27.845 226.843 27.9566C226.855 29.0689 226.851 30.1814 226.851 31.3909C226.229 30.8932 225.658 30.4357 225.071 29.9638Z" fill="#4C4B49"/>
<path d="M196.586 28.2316C195.351 29.739 193.717 30.5472 191.967 31.1564C191.524 31.3107 191.061 31.4062 190.575 31.5373C190.558 31.4155 190.539 31.3395 190.539 31.2634C190.536 30.3982 190.542 29.5329 190.533 28.6678C190.531 28.4777 190.586 28.4069 190.776 28.3676C191.69 28.1787 192.543 27.8354 193.322 27.2974C194.158 26.7195 194.713 25.9365 194.848 24.921C194.973 23.9805 194.981 23.0235 195.042 22.0468C193.255 22.0468 191.558 22.0468 189.837 22.0468C189.837 21.0427 189.837 20.0605 189.837 19.0453C191.537 19.0453 193.24 19.0453 194.971 19.0453C194.971 17.9268 194.971 16.8405 194.971 15.7292C195.966 15.7292 196.935 15.7292 197.926 15.7292C197.926 16.8113 197.926 17.8991 197.926 19.0241C199.48 19.0241 201.012 19.0241 202.56 19.0241C202.56 20.0362 202.56 21.0111 202.56 22.0249C201.033 22.0249 199.501 22.0249 197.937 22.0249C197.937 22.6887 197.956 23.3152 197.931 23.9399C197.908 24.5242 197.871 25.1115 197.784 25.6887C197.64 26.6468 197.209 27.478 196.586 28.2316Z" fill="#4B4A48"/>
<path d="M59.4179 28.389C59.1676 28.389 58.9474 28.389 58.7051 28.389C58.7051 24.0552 58.7051 19.7381 58.7051 15.4031C60.8659 15.4031 63.0231 15.4031 65.2021 15.4031C65.2021 19.207 65.2021 23.011 65.2021 26.8491C63.8566 26.8491 62.5056 26.8491 61.1231 26.8491C61.1231 27.3694 61.1231 27.8575 61.1231 28.389C60.5444 28.389 59.9961 28.389 59.4179 28.389ZM61.1078 23.5253C61.1078 23.8191 61.1078 24.113 61.1078 24.4031C61.695 24.4031 62.2424 24.4031 62.7923 24.4031C62.7923 23.6893 62.7923 22.9946 62.7923 22.284C62.2298 22.284 61.6833 22.284 61.1078 22.284C61.1078 22.6872 61.1078 23.0754 61.1078 23.5253ZM61.6834 17.7968C61.4971 17.7968 61.3108 17.7968 61.1279 17.7968C61.1279 18.5119 61.1279 19.1849 61.1279 19.8504C61.6943 19.8504 62.2405 19.8504 62.7858 19.8504C62.7858 19.1556 62.7858 18.4842 62.7858 17.7968C62.4235 17.7968 62.0833 17.7968 61.6834 17.7968Z" fill="#018CD7"/>
<path d="M179.892 17.7446C179.892 18.7624 179.892 19.7492 179.892 20.7617C182.454 20.7617 184.995 20.7617 187.559 20.7617C187.559 21.7572 187.559 22.7272 187.559 23.725C185.011 23.725 182.471 23.725 179.901 23.725C179.901 26.302 179.901 28.8516 179.901 31.4216C178.922 31.4216 177.972 31.4216 177.002 31.4216C177.002 26.1932 177.002 20.9671 177.002 15.7226C177.951 15.7226 178.901 15.7226 179.892 15.7226C179.892 16.3845 179.892 17.0491 179.892 17.7446Z" fill="#4B4A48"/>
<path d="M115.701 26.8822C115.886 28.4397 116.069 29.9695 116.254 31.5174C115.445 31.5174 114.664 31.5174 113.855 31.5174C113.515 28.7113 113.174 25.9072 112.831 23.0784C112.195 23.1076 111.577 23.1359 110.937 23.1654C110.937 22.3416 110.937 21.5245 110.937 20.6794C111.458 20.6527 111.976 20.6262 112.53 20.5979C112.441 19.7812 112.355 18.9916 112.267 18.1837C113.068 18.1837 113.85 18.1837 114.674 18.1837C114.767 18.9543 114.861 19.7334 114.956 20.5262C117.129 20.4579 119.277 20.3904 121.464 20.3217C121.464 20.8635 121.441 21.3769 121.468 21.8875C121.555 23.5455 120.825 24.8597 119.835 26.0748C118.993 27.1081 117.919 27.822 116.768 28.431C116.744 28.4435 116.711 28.4371 116.651 28.4423C116.651 27.5725 116.646 26.7109 116.66 25.8497C116.662 25.7736 116.784 25.6818 116.869 25.6277C117.884 24.9783 118.616 24.0992 119.013 22.8883C117.754 22.9318 116.526 22.9742 115.25 23.0183C115.401 24.3107 115.55 25.5827 115.701 26.8822Z" fill="#4C4B49"/>
<path d="M143.048 19.1152C141.268 19.1152 139.518 19.1152 137.746 19.1152C137.746 18.1593 137.746 17.2174 137.746 16.2513C141.859 16.2513 145.976 16.2513 150.092 16.2513C150.64 21.3641 147.896 24.7031 144.789 26.0239C144.789 25.6856 144.789 25.3609 144.789 25.0363C144.789 24.6757 144.813 24.313 144.784 23.9549C144.728 23.2675 144.816 22.7491 145.479 22.2904C146.399 21.6548 147.008 20.2239 147.083 19.1152C145.746 19.1152 144.412 19.1152 143.048 19.1152Z" fill="#4B4A48"/>
<path d="M163.941 30.4182C163.982 30.5235 164.016 30.6066 164.061 30.7188C163.069 30.7188 162.107 30.7241 161.145 30.7095C161.061 30.7083 160.947 30.5942 160.9 30.5036C160.26 29.2565 159.874 27.9212 159.592 26.5475C159.127 24.2817 158.936 21.9927 158.976 19.6795C158.994 18.6295 158.979 17.5788 158.979 16.5285C158.979 16.4176 158.979 16.3068 158.979 16.1656C159.335 16.1656 159.662 16.1656 159.985 16.1656C160.137 14.5451 161.338 14.007 162.246 14.1032C163.323 14.2174 164.105 15.1641 164.073 16.2933C164.044 17.307 163.148 18.354 161.853 18.2498C161.655 22.4607 162.256 26.5238 163.941 30.4182ZM162.701 16.8131C162.752 16.7372 162.816 16.6672 162.851 16.5843C162.993 16.2494 162.977 15.921 162.761 15.6242C162.534 15.3139 162.215 15.2125 161.853 15.2772C161.505 15.3393 161.281 15.5664 161.179 15.9071C161.065 16.2874 161.208 16.7136 161.503 16.9267C161.854 17.1809 162.259 17.1527 162.701 16.8131Z" fill="#4C4B49"/>
<path d="M131.804 15.8648C132.733 15.8587 133.637 15.8587 134.564 15.8587C134.572 15.968 134.584 16.056 134.584 16.1439C134.585 18.4209 134.605 20.6981 134.579 22.9747C134.557 24.9417 134.111 26.7918 132.894 28.3689C131.8 29.7857 130.362 30.693 128.689 31.223C128.221 31.3714 127.741 31.4843 127.217 31.627C127.217 31.341 127.217 31.0992 127.217 30.8573C127.217 30.1567 127.224 29.456 127.213 28.7556C127.21 28.5571 127.263 28.4768 127.464 28.426C128.46 28.1738 129.395 27.7954 130.127 27.0105C131.217 25.8412 131.718 24.438 131.722 22.8382C131.728 20.6334 131.723 18.4285 131.726 16.2237C131.726 16.1061 131.76 15.9885 131.804 15.8648Z" fill="#4C4B49"/>
<path d="M153.341 17.621C153.341 17.1289 153.341 16.6677 153.341 16.1861C154.298 16.1861 155.228 16.1861 156.182 16.1861C156.189 16.2759 156.202 16.3636 156.201 16.4512C156.197 18.0984 156.208 19.7459 156.18 21.3926C156.128 24.5247 155.612 27.5667 154.431 30.4728C154.376 30.6071 154.346 30.7262 154.151 30.724C153.156 30.7128 152.161 30.7189 151.113 30.7189C151.162 30.5937 151.197 30.4948 151.238 30.3986C152.531 27.3786 153.231 24.2208 153.319 20.925C153.348 19.8346 153.335 18.743 153.341 17.621Z" fill="#4C4B49"/>
<path d="M42.9243 16.9866C42.6195 16.6452 42.3326 16.2797 42.0325 15.9258C41.323 15.089 40.6069 14.258 39.8946 13.4236C39.8559 13.3783 39.828 13.3233 39.8042 13.2346C40.8076 12.2084 41.8033 11.2216 42.7961 10.2318C44.4079 8.62494 46.0174 7.01576 47.6286 5.40832C48.3335 4.7051 49.0444 4.00814 49.7445 3.30005C50.257 2.78178 50.7564 2.24997 51.2616 1.72419C51.2616 1.72419 51.2653 1.72911 51.2798 1.72696C51.3068 1.70591 51.3193 1.68701 51.3318 1.66811C51.3571 1.65329 51.3824 1.63847 51.4076 1.62364C51.4239 1.63388 51.4401 1.64411 51.4563 1.65435C48.6163 6.75881 45.7763 11.8633 42.9243 16.9866Z" fill="#014199"/>
<path d="M51.2392 1.72169C50.7564 2.24997 50.257 2.78178 49.7446 3.30005C49.0444 4.00814 48.3335 4.7051 47.6287 5.40832C46.0175 7.01576 44.4079 8.62494 42.7961 10.2318C41.8033 11.2216 40.8077 12.2084 39.8017 13.2133C39.6435 13.0915 39.497 12.9528 39.3505 12.8142C38.3353 11.854 37.3201 10.8939 36.2961 9.91487C37.222 9.37639 38.154 8.85189 39.0916 8.33792C43.0592 6.16282 47.0285 3.99076 50.9976 1.81844C51.0678 1.77998 51.1436 1.75204 51.2392 1.72169Z" fill="#53C3F1"/>
<path d="M143.169 20.926C143.499 20.926 143.8 20.926 144.135 20.926C144.135 21.6731 144.147 22.3993 144.133 23.125C144.092 25.242 143.442 27.1391 142.15 28.7997C141.089 30.1639 139.236 31.3312 137.739 31.5743C137.739 30.5051 137.739 29.4373 137.739 28.3431C138.534 28.2207 139.219 27.87 139.784 27.301C140.714 26.3647 141.181 25.1956 141.288 23.8858C141.358 23.0256 141.344 22.1581 141.366 21.2938C141.369 21.1833 141.367 21.0727 141.367 20.926C141.976 20.926 142.557 20.926 143.169 20.926Z" fill="#4C4B49"/>
<path d="M171.609 21.9154C172.452 21.9154 173.264 21.9154 174.097 21.9154C174.097 22.9039 174.097 23.8655 174.097 24.8462C171.285 24.8462 168.477 24.8462 165.655 24.8462C165.655 23.8775 165.655 22.9234 165.655 21.9153C167.63 21.9153 169.604 21.9153 171.609 21.9154Z" fill="#4B4A48"/>
<path d="M208.866 24.8652C207.35 24.8652 205.865 24.8652 204.363 24.8652C204.363 23.8751 204.363 22.9135 204.363 21.9337C207.176 21.9337 209.976 21.9337 212.8 21.9337C212.8 22.8988 212.8 23.8599 212.8 24.8652C211.5 24.8652 210.198 24.8652 208.866 24.8652Z" fill="#4B4A48"/>
<path d="M127.387 24.6445C126.443 24.6636 125.52 24.6636 124.585 24.6636C124.585 21.7244 124.585 18.8059 124.585 15.877C125.53 15.877 126.459 15.877 127.405 15.877C127.41 15.9614 127.418 16.0312 127.418 16.101C127.419 18.9014 127.419 21.7019 127.418 24.5023C127.418 24.5433 127.413 24.5843 127.387 24.6445Z" fill="#4B4A48"/>
<path d="M92.1219 15.8516C92.2846 15.9114 92.4254 15.9619 92.6044 16.0261C92.4045 16.4264 92.2271 16.8123 92.0236 17.1832C91.4589 18.2127 90.8802 19.2342 90.3149 20.2634C90.2113 20.4521 90.1084 20.4869 89.9075 20.4056C89.2294 20.131 88.5424 19.8793 87.8252 19.606C88.6756 18.1628 89.3153 16.6549 89.7987 15.0481C90.585 15.3195 91.3424 15.5809 92.1219 15.8516Z" fill="#028DD7"/>
<path d="M78.4837 16.5225C78.4114 16.3725 78.3493 16.2436 78.2686 16.0761C79.0594 15.7608 79.839 15.45 80.6344 15.1329C81.4106 16.5527 82.1415 17.9661 82.5365 19.5696C81.6877 19.9234 80.8475 20.2736 79.9782 20.6359C79.6713 19.1739 79.11 17.8481 78.4837 16.5225Z" fill="#028DD7"/>
<path d="M228.579 16.8171C228.579 17.1762 228.579 17.5044 228.579 17.8503C228.156 17.8503 227.75 17.8503 227.33 17.8503C227.33 16.9518 227.33 16.0638 227.33 15.1618C227.742 15.1618 228.14 15.1618 228.579 15.1618C228.579 15.707 228.579 16.2466 228.579 16.8171Z" fill="#4B4A48"/>
<path d="M51.3142 1.6696C51.3195 1.68701 51.3069 1.70591 51.277 1.72566C51.2719 1.70804 51.2841 1.68957 51.3142 1.6696Z" fill="#53C3F1"/>
</g>
<defs>
<clipPath id="clip0_19_157">
<rect width="230" height="46" fill="white"/>
</clipPath>
</defs>
</svg>
