<svg width="29" height="29" viewBox="0 0 29 29" fill="none" xmlns="http://www.w3.org/2000/svg">
<g clip-path="url(#clip0_598_827)">
<path d="M26.4624 0L10.6937 17.3547L6.11709 13.8656H3.57959L10.6937 25.4203L28.9999 0H26.4624Z" fill="#F08336"/>
<path d="M24.4234 25.4202C24.4234 25.6921 24.1969 25.9186 23.925 25.9186H3.57969C3.30781 25.9186 3.08125 25.6921 3.08125 25.4202V5.0749C3.08125 4.80303 3.30781 4.57646 3.57969 4.57646H17.4906L20.2547 1.54053H0.996875C0.453125 1.54053 0 1.99365 0 2.5374V27.9577C0 28.5468 0.453125 28.9999 0.996875 28.9999H26.4172C26.9609 28.9999 27.4141 28.5468 27.4141 28.003V8.20146L24.3781 12.4608C24.4234 12.4608 24.4234 25.4202 24.4234 25.4202Z" fill="#F08336"/>
</g>
<defs>
<clipPath id="clip0_598_827">
<rect width="29" height="29" fill="white"/>
</clipPath>
</defs>
</svg>
