<svg width="22" height="24" viewBox="0 0 22 24" fill="none" xmlns="http://www.w3.org/2000/svg">
<path d="M20.4286 0C20.8135 4.29805e-05 21.185 0.119663 21.4726 0.33617C21.7602 0.552678 21.944 0.851015 21.989 1.17459L22 1.33023V22.614C21.9996 22.953 21.8462 23.2791 21.5712 23.5256C21.2963 23.7722 20.9205 23.9205 20.5207 23.9404C20.1208 23.9603 19.7271 23.8502 19.42 23.6326C19.1128 23.4149 18.9154 23.1063 18.8681 22.7696L18.8571 22.614V15.9628H17.2857C16.9008 15.9627 16.5293 15.8431 16.2417 15.6266C15.9541 15.4101 15.7703 15.1118 15.7253 14.7882L15.7143 14.6326V6.65116C15.7143 3.71135 18.0714 0 20.4286 0ZM11 0C11.3849 4.29805e-05 11.7564 0.119663 12.044 0.33617C12.3316 0.552678 12.5154 0.851015 12.5604 1.17459L12.5714 1.33023V7.98139C12.5712 9.16114 12.1081 10.3074 11.2548 11.2402C10.4015 12.1729 9.20641 12.8393 7.85714 13.1347V22.614C7.8567 22.953 7.70333 23.2791 7.42838 23.5256C7.15343 23.7722 6.77765 23.9205 6.37781 23.9404C5.97797 23.9603 5.58426 23.8502 5.27712 23.6326C4.96998 23.4149 4.77259 23.1063 4.72529 22.7696L4.71429 22.614V13.1347C3.41857 12.8512 2.2635 12.2251 1.41706 11.3476C0.570619 10.47 0.0769532 9.38681 0.00785732 8.25542L0 7.98139V1.33023C0.000444255 0.991183 0.15381 0.665073 0.428761 0.418533C0.703713 0.171993 1.0795 0.0236316 1.47933 0.00376174C1.87917 -0.0161081 2.27288 0.0940136 2.58002 0.311627C2.88716 0.52924 3.08455 0.837919 3.13186 1.17459L3.14286 1.33023V7.98139C3.14287 8.44839 3.2881 8.90716 3.56394 9.31159C3.83978 9.71602 4.23652 10.0519 4.71429 10.2854V1.33023C4.71473 0.991183 4.8681 0.665073 5.14305 0.418533C5.418 0.171993 5.79378 0.0236316 6.19362 0.00376174C6.59346 -0.0161081 6.98717 0.0940136 7.29431 0.311627C7.60145 0.52924 7.79884 0.837919 7.84614 1.17459L7.85714 1.33023L7.85871 10.2854C8.29724 10.0708 8.668 9.76966 8.93943 9.40765C9.21085 9.04563 9.37489 8.63345 9.41757 8.2062L9.42857 7.98139V1.33023C9.42857 0.977433 9.59413 0.639083 9.88883 0.389616C10.1835 0.140149 10.5832 0 11 0Z" fill="#FCA518"/>
</svg>
